<svg xmlns="http://www.w3.org/2000/svg" width="60.845" height="61.552" viewBox="0 0 60.845 61.552">
  <g id="Group_62" data-name="Group 62" transform="translate(-3)">
    <path id="Path_233" data-name="Path 233" d="M63.832,13.272a.988.988,0,0,0-.053-.264c-.011-.033-.02-.065-.034-.1a1.029,1.029,0,0,0-.205-.3L51.23.3a1.009,1.009,0,0,0-.3-.205C50.9.081,50.867.073,50.836.062a1.007,1.007,0,0,0-.269-.053c-.017,0-.036-.008-.058-.008H19.733A5.136,5.136,0,0,0,14.6,5.129v7.55a19.453,19.453,0,0,0,0,35.6v8.145a5.136,5.136,0,0,0,5.129,5.129H58.716a5.135,5.135,0,0,0,5.129-5.129V13.336C63.845,13.314,63.834,13.294,63.832,13.272Zm-3.489-.961H52.561a1.026,1.026,0,0,1-1.026-1.026V3.5ZM5.073,30.479a17.417,17.417,0,0,1,17.44-17.44c.583,0,1.162.028,1.733.084A17.392,17.392,0,0,1,39.737,27.867a17.6,17.6,0,0,1,.214,2.612,17.439,17.439,0,0,1-34.879,0Zm29.354,15.41c.14-.109.279-.216.416-.328a17.285,17.285,0,0,0,2.752-2.75c.112-.137.219-.277.328-.417.124-.162.259-.316.378-.481l8.745,8.756a3.054,3.054,0,0,1,0,4.34,3.125,3.125,0,0,1-4.343,0l-8.757-8.741C34.112,46.147,34.266,46.013,34.428,45.889ZM58.716,59.5H19.733a3.078,3.078,0,0,1-3.078-3.078V49.078c.064.021.13.034.195.054.164.05.331.09.5.136.384.1.77.205,1.161.282.192.04.384.077.578.111.391.069.785.123,1.181.168.177.02.351.045.529.06.568.049,1.141.08,1.718.08A19.365,19.365,0,0,0,32.176,47.4l9.071,9.062a5.129,5.129,0,1,0,7.25-7.244L39.43,40.141A19.358,19.358,0,0,0,42,30.479q0-.975-.094-1.934a19.487,19.487,0,0,0-19.4-17.558c-.578,0-1.15.032-1.718.08-.177.016-.353.04-.529.061q-.592.066-1.178.168-.292.051-.583.112c-.386.08-.768.174-1.148.279-.17.046-.341.087-.513.138-.064.019-.128.033-.192.054V5.129A3.078,3.078,0,0,1,19.73,2.052H49.483v9.233a3.078,3.078,0,0,0,3.078,3.078h9.233V56.423A3.077,3.077,0,0,1,58.716,59.5Z" fill="#fff"/>
    <path id="Path_234" data-name="Path 234" d="M166.109,49.026A1.026,1.026,0,0,0,165.083,48H142.514a1.026,1.026,0,1,0,0,2.052h22.569A1.026,1.026,0,0,0,166.109,49.026Z" transform="translate(-120.729 -41.845)" fill="#fff"/>
    <path id="Path_235" data-name="Path 235" d="M330.824,192h-12.31a1.026,1.026,0,1,0,0,2.052h12.31a1.026,1.026,0,0,0,0-2.052Z" transform="translate(-274.16 -167.379)" fill="#fff"/>
    <path id="Path_236" data-name="Path 236" d="M330.824,240h-12.31a1.026,1.026,0,1,0,0,2.052h12.31a1.026,1.026,0,0,0,0-2.052Z" transform="translate(-274.16 -209.224)" fill="#fff"/>
    <path id="Path_237" data-name="Path 237" d="M324.876,289.026A1.026,1.026,0,0,0,323.85,288H310.514a1.026,1.026,0,1,0,0,2.052H323.85A1.026,1.026,0,0,0,324.876,289.026Z" transform="translate(-267.186 -251.069)" fill="#fff"/>
    <path id="Path_238" data-name="Path 238" d="M352.773,337.026A1.026,1.026,0,0,0,351.747,336h-9.233a1.026,1.026,0,1,0,0,2.052h9.233A1.026,1.026,0,0,0,352.773,337.026Z" transform="translate(-295.082 -292.914)" fill="#fff"/>
    <path id="Path_239" data-name="Path 239" d="M263.747,97.026A1.026,1.026,0,0,0,262.721,96h-8.207a1.026,1.026,0,1,0,0,2.052h8.207A1.026,1.026,0,0,0,263.747,97.026Z" transform="translate(-218.367 -83.69)" fill="#fff"/>
    <path id="Path_240" data-name="Path 240" d="M310.928,145.026A1.026,1.026,0,0,0,309.9,144H294.514a1.026,1.026,0,1,0,0,2.052H309.9A1.026,1.026,0,0,0,310.928,145.026Z" transform="translate(-253.238 -125.534)" fill="#fff"/>
    <path id="Path_241" data-name="Path 241" d="M118.514,186.052h7.181a1.026,1.026,0,1,0,0-2.052h-7.181a1.026,1.026,0,0,0,0,2.052Z" transform="translate(-99.807 -160.405)" fill="#fff"/>
    <path id="Path_242" data-name="Path 242" d="M102.928,233.026A1.026,1.026,0,0,0,101.9,232H86.514a1.026,1.026,0,1,0,0,2.052H101.9A1.026,1.026,0,0,0,102.928,233.026Z" transform="translate(-71.91 -202.25)" fill="#fff"/>
    <path id="Path_243" data-name="Path 243" d="M125.695,280h-7.181a1.026,1.026,0,1,0,0,2.052h7.181a1.026,1.026,0,1,0,0-2.052Z" transform="translate(-99.807 -244.095)" fill="#fff"/>
    <path id="Path_244" data-name="Path 244" d="M57.844,146.631a15.044,15.044,0,0,0,5.985-5.805c.081-.142.169-.279.245-.423.04-.074.071-.151.109-.225.156-.3.308-.6.442-.906s.24-.6.35-.9c.032-.087.072-.172.1-.26a15.4,15.4,0,1,0-7.234,8.524Zm-13.7-1.828a13.234,13.234,0,0,1-3.037-2.276,13.515,13.515,0,0,1-1.674-2.036q-.364-.544-.67-1.117a13.337,13.337,0,1,1,23.5.059v.009a13.111,13.111,0,0,1-5.388,5.385,13.3,13.3,0,0,1-12.731-.02Z" transform="translate(-28.029 -102.621)" fill="#fff"/>
    <path id="Path_245" data-name="Path 245" d="M388.669,384a1.026,1.026,0,0,0-1.026,1.026v4.1a1.026,1.026,0,0,1-1.026,1.026h-4.1a1.026,1.026,0,1,0,0,2.052h4.1a3.077,3.077,0,0,0,3.078-3.078v-4.1A1.026,1.026,0,0,0,388.669,384Z" transform="translate(-329.953 -334.758)" fill="#fff"/>
  </g>
</svg>
