<svg xmlns="http://www.w3.org/2000/svg" xmlns:xlink="http://www.w3.org/1999/xlink" width="131.112" height="131.075" viewBox="0 0 131.112 131.075">
  <defs>
    <clipPath id="clip-path">
      <path id="SVGID" d="M-512.452,1115.139a2.891,2.891,0,0,1-.014-4.083l4.709-4.744a2.886,2.886,0,0,1,4.061.008,2.887,2.887,0,0,1,.035,4.06l-4.71,4.745A2.888,2.888,0,0,1-512.452,1115.139Zm5.422,5.385a2.889,2.889,0,0,1-.014-4.082l4.71-4.745a2.885,2.885,0,0,1,4.081-.013,2.886,2.886,0,0,1,.013,4.081l-4.71,4.745a2.889,2.889,0,0,1-4.08.01Zm5.421,5.385a2.89,2.89,0,0,1-.013-4.082l4.71-4.745a2.886,2.886,0,0,1,4.005.057,2.886,2.886,0,0,1,.09,4l-4.709,4.744a2.887,2.887,0,0,1-4.082.016Zm9.5,5.371a2.886,2.886,0,0,1-2.785.756,2.885,2.885,0,0,1-2.047-2.033,2.885,2.885,0,0,1,.738-2.79l4.709-4.746a2.886,2.886,0,0,1,4.061.008,2.888,2.888,0,0,1,.035,4.061Zm22.98-23.063-.177-.22,10.754-10.846-1.168-1.2-10.9,10.932-14.256-14.159a2.8,2.8,0,0,0-1.986-.814,2.8,2.8,0,0,0-1.98.828l-6.761,6.809a3.832,3.832,0,0,1-2.714,1.132,3.831,3.831,0,0,1-2.717-1.124,1.92,1.92,0,0,1-.568-1.361,1.922,1.922,0,0,1,.563-1.363l9.419-9.491,11.788-11.884-1.363-1.255-11.75,11.821-.688.693-11.449-10.811-1.242,1.242,11.373,10.9-7.417,7.473a3.88,3.88,0,0,0-1.106,2.689c.031,3.84,5.816,6.071,9.2,2.657l6.76-6.807a.937.937,0,0,1,.66-.277.933.933,0,0,1,.662.271c1.9,1.883,13.8,13.707,15.618,15.511a2.887,2.887,0,0,1,.853,2.038,2.882,2.882,0,0,1-.839,2.043h0a2.879,2.879,0,0,1-2.037.856,2.883,2.883,0,0,1-2.043-.841l-12.877-12.789a.935.935,0,0,0-1.322,0,.935.935,0,0,0,0,1.323l12.88,12.788a2.886,2.886,0,0,1,.757,2.785,2.887,2.887,0,0,1-2.033,2.048,2.886,2.886,0,0,1-2.79-.737l-12.879-12.79a.935.935,0,0,0-.9-.239.934.934,0,0,0-.659.663.936.936,0,0,0,.245.9l12.875,12.786a2.882,2.882,0,0,1,.286,3.762,2.883,2.883,0,0,1-3.682.823,4.719,4.719,0,0,0-1.183-3.685,4.721,4.721,0,0,0-3.541-1.561c-1.029.006-.642.383-.649-.646a4.754,4.754,0,0,0-1.4-3.359,4.752,4.752,0,0,0-3.368-1.381c-1.029,0-.646.395-.649-.646a4.755,4.755,0,0,0-1.4-3.359,4.755,4.755,0,0,0-3.368-1.381c-1.034,0-.646.4-.649-.646a4.76,4.76,0,0,0-2.954-4.376,4.762,4.762,0,0,0-5.176,1.041c-6.475,6.521-4.241,4.274-4.724,4.76l-12.259-12.089-1.319,1.327,12.54,12.371a4.734,4.734,0,0,0,.718,4.7,4.732,4.732,0,0,0,4.442,1.7,4.71,4.71,0,0,0,1.333,4.081,4.707,4.707,0,0,0,4.089,1.3,4.712,4.712,0,0,0,1.333,4.08,4.707,4.707,0,0,0,4.089,1.3,4.749,4.749,0,0,0,2.56,4.95,4.75,4.75,0,0,0,5.5-.892c5.169-5.207,5.01-4.95,5.486-5.814a4.719,4.719,0,0,0,4.815-.553,4.718,4.718,0,0,0,1.79-4.5,4.727,4.727,0,0,0,4.075-1.343,4.725,4.725,0,0,0,1.308-4.085,4.749,4.749,0,0,0,4.962-2.592,4.749,4.749,0,0,0-.957-5.517" transform="translate(527.384 -1074.196)" fill="#fff"/>
    </clipPath>
  </defs>
  <g id="Group_11" data-name="Group 11" transform="translate(561.954 -1046.35)">
    <g id="Group_1" data-name="Group 1" transform="translate(-561.954 1154.99)">
      <path id="Path_1" data-name="Path 1" d="M-551.888,1204.5c0,.1,0,.2-.006.3s-.01.193-.019.283v1.181h-.012a1.179,1.179,0,0,0,.1.308,1.293,1.293,0,0,0,.277.418.915.915,0,0,0,.234.173c.033.016.049.029.049.037s-.033.025-.1.025v-.013h1.711v2.35h-1.464a4.236,4.236,0,0,1-1.557-.277,3.554,3.554,0,0,1-1.089-.621,3.645,3.645,0,0,1-.8.5,5.005,5.005,0,0,1-2.289.541h-.111a5.182,5.182,0,0,1-1.071-.11,5.42,5.42,0,0,1-1.132-.393,4.868,4.868,0,0,1-1.071-.733,4.516,4.516,0,0,1-.874-1.063,5.948,5.948,0,0,1-.6-1.385,6.29,6.29,0,0,1-.24-1.717c-.009-.352-.013-.689-.013-1.008v-.468a8.41,8.41,0,0,1,.123-1.335,5.019,5.019,0,0,1,.351-1.163,3.436,3.436,0,0,1,.695-1.009,4.59,4.59,0,0,1,1.126-.812,6.407,6.407,0,0,1,1.556-.548,13.5,13.5,0,0,1,2.08-.277q.665-.037,1.452-.037.566,0,1.206.025l1.477.062Zm-7.925-10.067a1.538,1.538,0,0,1,.129-.627,1.6,1.6,0,0,1,.35-.511,1.69,1.69,0,0,1,.5-.338,1.5,1.5,0,0,1,.6-.123,1.549,1.549,0,0,1,.609.123,1.616,1.616,0,0,1,.51.345,1.607,1.607,0,0,1,.344.51,1.582,1.582,0,0,1,.123.621,1.58,1.58,0,0,1-.123.622,1.463,1.463,0,0,1-.344.5,1.71,1.71,0,0,1-.51.332,1.536,1.536,0,0,1-.609.123,1.489,1.489,0,0,1-.6-.123,1.728,1.728,0,0,1-.5-.332,1.542,1.542,0,0,1-.35-.5A1.5,1.5,0,0,1-559.812,1194.429Zm4.786,9.279v-3.728a9.779,9.779,0,0,0-2.079.2,2.4,2.4,0,0,0-1.144.523,1.539,1.539,0,0,0-.327.554,4.012,4.012,0,0,0-.178.781,7.463,7.463,0,0,0-.062,1.015c-.008.123-.013.251-.013.382q0,.394.013.836a5.262,5.262,0,0,0,.129,1.108,3.767,3.767,0,0,0,.307.861,2.446,2.446,0,0,0,.437.615,1.979,1.979,0,0,0,.517.382,1.307,1.307,0,0,0,.542.136,1.718,1.718,0,0,0,.565-.148,2.252,2.252,0,0,0,.824-.8,3.2,3.2,0,0,0,.443-1.44v-1.28Zm-.836-9.279a1.549,1.549,0,0,1,.129-.627,1.613,1.613,0,0,1,.35-.511,1.674,1.674,0,0,1,.511-.338,1.574,1.574,0,0,1,.621-.123,1.548,1.548,0,0,1,.609.123,1.473,1.473,0,0,1,.5.345,1.714,1.714,0,0,1,.332.51,1.568,1.568,0,0,1,.123.621,1.515,1.515,0,0,1-.123.615,1.576,1.576,0,0,1-.338.5,1.579,1.579,0,0,1-.5.339,1.494,1.494,0,0,1-.6.123,1.561,1.561,0,0,1-.621-.123,1.712,1.712,0,0,1-.511-.332,1.554,1.554,0,0,1-.35-.5A1.508,1.508,0,0,1-555.862,1194.429Z" transform="translate(561.954 -1192.768)" fill="#fff"/>
      <path id="Path_2" data-name="Path 2" d="M-547.908,1215.4a1.552,1.552,0,0,1,.129-.628,1.6,1.6,0,0,1,.351-.511,1.689,1.689,0,0,1,.5-.338,1.487,1.487,0,0,1,.6-.123,1.528,1.528,0,0,1,.609.123,1.607,1.607,0,0,1,.511.344,1.61,1.61,0,0,1,.344.511,1.562,1.562,0,0,1,.123.621,1.563,1.563,0,0,1-.123.621,1.473,1.473,0,0,1-.344.5,1.708,1.708,0,0,1-.511.332,1.532,1.532,0,0,1-.609.123,1.491,1.491,0,0,1-.6-.123,1.733,1.733,0,0,1-.5-.332,1.545,1.545,0,0,1-.351-.5A1.506,1.506,0,0,1-547.908,1215.4Zm8.061-14.743v7.372a3.2,3.2,0,0,1-.271,1.3,3.373,3.373,0,0,1-.738,1.07,3.956,3.956,0,0,1-1.293.862,4.207,4.207,0,0,1-1.636.307h-3.458v-2.35h3.47a.618.618,0,0,0,.419-.222,1.294,1.294,0,0,0,.277-.418,1.194,1.194,0,0,0,.1-.308h-.012v-7.617Zm-4.11,14.743a1.55,1.55,0,0,1,.129-.628,1.6,1.6,0,0,1,.35-.511,1.665,1.665,0,0,1,.511-.338,1.56,1.56,0,0,1,.621-.123,1.531,1.531,0,0,1,.609.123,1.476,1.476,0,0,1,.5.344,1.72,1.72,0,0,1,.332.511,1.563,1.563,0,0,1,.123.621,1.529,1.529,0,0,1-.123.616,1.591,1.591,0,0,1-.338.5,1.581,1.581,0,0,1-.5.338,1.488,1.488,0,0,1-.6.123,1.564,1.564,0,0,1-.621-.123,1.708,1.708,0,0,1-.511-.332,1.541,1.541,0,0,1-.35-.5A1.5,1.5,0,0,1-543.957,1215.4Z" transform="translate(558.331 -1194.787)" fill="#fff"/>
      <path id="Path_3" data-name="Path 3" d="M-529.669,1200.657v10.633a8.638,8.638,0,0,1-.3,1.864,5.774,5.774,0,0,1-.615,1.44,4.522,4.522,0,0,1-.9,1.071,5.118,5.118,0,0,1-1.15.744,6.455,6.455,0,0,1-1.305.473,10.286,10.286,0,0,1-1.377.241q-.7.073-1.428.086t-1.711.013v-2.339q.836,0,1.391-.006t1.052-.056q.5-.049.922-.134a3.037,3.037,0,0,0,.745-.247,2.21,2.21,0,0,0,.584-.393,2.271,2.271,0,0,0,.462-.628,4.133,4.133,0,0,0,.327-.917,6.947,6.947,0,0,0,.165-1.248v-10.6Z" transform="translate(555.893 -1194.787)" fill="#fff"/>
      <path id="Path_4" data-name="Path 4" d="M-520.5,1194.189v12.172a1.4,1.4,0,0,0,.1.554,1.3,1.3,0,0,0,.277.418.688.688,0,0,0,.407.222h1.993v2.35H-519.7a4.237,4.237,0,0,1-1.624-.307,3.79,3.79,0,0,1-1.292-.862,3.379,3.379,0,0,1-.738-1.07,3.207,3.207,0,0,1-.271-1.3v-12.172Z" transform="translate(552.07 -1193.119)" fill="#fff"/>
      <path id="Path_5" data-name="Path 5" d="M-507.692,1198.057a4.921,4.921,0,0,1,1.07.732,4.669,4.669,0,0,1,.88,1.065,5.46,5.46,0,0,1,.591,1.391,7.093,7.093,0,0,1,.24,1.711q.012.726.013,1.378a9.114,9.114,0,0,1-.08,1.237,5.191,5.191,0,0,1-.271,1.1,3.071,3.071,0,0,1-.24.565h2.363v2.35H-517v-2.35h2.412a3.1,3.1,0,0,1-.24-.565,5.192,5.192,0,0,1-.27-1.1,9.119,9.119,0,0,1-.08-1.237c-.008-.082-.013-.171-.013-.27q0-.53.025-1.121a6.29,6.29,0,0,1,.24-1.7,5.959,5.959,0,0,1,.6-1.391,4.574,4.574,0,0,1,.873-1.065,4.93,4.93,0,0,1,1.071-.732,5.3,5.3,0,0,1,1.126-.375,5.727,5.727,0,0,1,1.213-.129,6.008,6.008,0,0,1,1.212.122A5.026,5.026,0,0,1-507.692,1198.057Zm-6.2-3.5a1.539,1.539,0,0,1,.13-.628,1.593,1.593,0,0,1,.35-.51,1.684,1.684,0,0,1,.5-.339,1.5,1.5,0,0,1,.6-.123,1.551,1.551,0,0,1,.609.123,1.616,1.616,0,0,1,.511.345,1.594,1.594,0,0,1,.344.511,1.574,1.574,0,0,1,.123.621,1.579,1.579,0,0,1-.123.622,1.461,1.461,0,0,1-.344.5,1.718,1.718,0,0,1-.511.332,1.536,1.536,0,0,1-.609.123,1.489,1.489,0,0,1-.6-.123,1.729,1.729,0,0,1-.5-.332,1.542,1.542,0,0,1-.35-.5A1.5,1.5,0,0,1-513.9,1194.562Zm5.858,8.417a5.255,5.255,0,0,0-.129-1.107,3.75,3.75,0,0,0-.308-.862,2.462,2.462,0,0,0-.436-.615,2.024,2.024,0,0,0-.517-.381.9.9,0,0,0-.271-.093,2.931,2.931,0,0,0-.32-.043h-.049a1.164,1.164,0,0,0-.283.037.878.878,0,0,0-.3.1,2,2,0,0,0-.517.381,2.465,2.465,0,0,0-.437.615,3.786,3.786,0,0,0-.308.862,5.208,5.208,0,0,0-.128,1.107c-.009.3-.013.574-.013.837,0,.132,0,.259.013.382a7.46,7.46,0,0,0,.062,1.015,3.984,3.984,0,0,0,.178.781,1.568,1.568,0,0,0,.338.566q.122.136.24.252a1.224,1.224,0,0,0,.271.2,1.476,1.476,0,0,0,.363.142,2.157,2.157,0,0,0,.542.056,2.22,2.22,0,0,0,.554-.056,1.477,1.477,0,0,0,.363-.142,1.206,1.206,0,0,0,.271-.2c.078-.078.158-.166.24-.264a1.452,1.452,0,0,0,.339-.554,3.986,3.986,0,0,0,.178-.787,9.049,9.049,0,0,0,.074-1v-.393Q-508.025,1203.423-508.037,1202.979Zm-1.907-8.417a1.552,1.552,0,0,1,.129-.628,1.594,1.594,0,0,1,.35-.51,1.683,1.683,0,0,1,.511-.339,1.581,1.581,0,0,1,.622-.123,1.551,1.551,0,0,1,.609.123,1.463,1.463,0,0,1,.5.345,1.7,1.7,0,0,1,.332.511,1.562,1.562,0,0,1,.123.621,1.519,1.519,0,0,1-.123.615,1.577,1.577,0,0,1-.338.5,1.583,1.583,0,0,1-.5.338,1.5,1.5,0,0,1-.6.123,1.566,1.566,0,0,1-.622-.123,1.728,1.728,0,0,1-.511-.332,1.542,1.542,0,0,1-.35-.5A1.509,1.509,0,0,1-509.945,1194.562Z" transform="translate(550.359 -1192.802)" fill="#fff"/>
      <path id="Path_6" data-name="Path 6" d="M-488.065,1211.183h-11.9v-2.35h2.387a2.6,2.6,0,0,0-.148-.381,4.254,4.254,0,0,1-.284-.862,6.441,6.441,0,0,1-.129-.96q-.03-.5-.03-1.057v-.492c0-.173,0-.349.012-.53v-.013a6.459,6.459,0,0,1,.474-2.393,4.942,4.942,0,0,1,1.144-1.679,4.615,4.615,0,0,1,1.613-.991,5.421,5.421,0,0,1,1.852-.327h.013a5.067,5.067,0,0,1,1.821.338,4.82,4.82,0,0,1,1.588,1,4.88,4.88,0,0,1,1.126,1.637,6.266,6.266,0,0,1,.424,2.479h-3.138a5.147,5.147,0,0,0-.166-1.464,3.018,3.018,0,0,0-.436-.91,2.061,2.061,0,0,0-.591-.56,1.267,1.267,0,0,0-.652-.191h-.013a1.34,1.34,0,0,0-.646.178,1.908,1.908,0,0,0-.6.554,3.35,3.35,0,0,0-.467.965,5.042,5.042,0,0,0-.215,1.391v.013c-.009.165-.013.321-.013.469v.43q0,.849.062,1.458a2.068,2.068,0,0,0,.332,1,1.762,1.762,0,0,0,.855.609,6.153,6.153,0,0,0,1.692.3h4.037Z" transform="translate(545.967 -1194.398)" fill="#fff"/>
      <path id="Path_7" data-name="Path 7" d="M-469.382,1201.848v4.8a1.4,1.4,0,0,0,.1.554,1.284,1.284,0,0,0,.277.418.619.619,0,0,0,.419.222h7.937a.612.612,0,0,0,.406-.222,1.3,1.3,0,0,0,.277-.418,1.4,1.4,0,0,0,.105-.554V1199.3h3.125v7.347a3.207,3.207,0,0,1-.27,1.3,3.389,3.389,0,0,1-.738,1.07,3.805,3.805,0,0,1-1.286.862,4.225,4.225,0,0,1-1.631.307h-7.913a4.256,4.256,0,0,1-1.643-.307,3.8,3.8,0,0,1-1.285-.862,3.379,3.379,0,0,1-.739-1.07,2.72,2.72,0,0,1-.27-1.059h-.013v-5.045Zm1.181-4.948a1.553,1.553,0,0,1,.129-.628,1.611,1.611,0,0,1,.35-.51,1.673,1.673,0,0,1,.505-.338,1.486,1.486,0,0,1,.6-.123,1.533,1.533,0,0,1,.609.123,1.582,1.582,0,0,1,.511.344,1.607,1.607,0,0,1,.345.51,1.577,1.577,0,0,1,.122.621,1.578,1.578,0,0,1-.122.622,1.478,1.478,0,0,1-.345.5,1.716,1.716,0,0,1-.511.332,1.533,1.533,0,0,1-.609.123,1.486,1.486,0,0,1-.6-.123,1.75,1.75,0,0,1-.505-.332,1.56,1.56,0,0,1-.35-.5A1.508,1.508,0,0,1-468.2,1196.9Zm3.95,0a1.552,1.552,0,0,1,.129-.628,1.6,1.6,0,0,1,.351-.51,1.642,1.642,0,0,1,.511-.338,1.564,1.564,0,0,1,.621-.123,1.531,1.531,0,0,1,.609.123,1.451,1.451,0,0,1,.5.344,1.717,1.717,0,0,1,.332.51,1.578,1.578,0,0,1,.122.621,1.53,1.53,0,0,1-.122.615,1.6,1.6,0,0,1-.338.5,1.609,1.609,0,0,1-.5.338,1.489,1.489,0,0,1-.6.123,1.564,1.564,0,0,1-.621-.123,1.716,1.716,0,0,1-.511-.332,1.548,1.548,0,0,1-.351-.5A1.507,1.507,0,0,1-464.25,1196.9Z" transform="translate(538.888 -1193.406)" fill="#fff"/>
      <path id="Path_8" data-name="Path 8" d="M-445.464,1194.189v12.172a1.4,1.4,0,0,0,.1.554,1.3,1.3,0,0,0,.277.418.689.689,0,0,0,.406.222h1.994v2.35h-1.981a4.235,4.235,0,0,1-1.624-.307,3.791,3.791,0,0,1-1.292-.862,3.367,3.367,0,0,1-.738-1.07,3.194,3.194,0,0,1-.271-1.3v-12.172Z" transform="translate(532.716 -1193.119)" fill="#fff"/>
      <path id="Path_9" data-name="Path 9" d="M-432.653,1198.057a4.946,4.946,0,0,1,1.071.732,4.709,4.709,0,0,1,.88,1.065,5.485,5.485,0,0,1,.59,1.391,7.057,7.057,0,0,1,.24,1.711q.012.726.012,1.378a9.114,9.114,0,0,1-.08,1.237,5.194,5.194,0,0,1-.27,1.1,3.1,3.1,0,0,1-.24.565h2.364v2.35h-13.87v-2.35h2.413a2.985,2.985,0,0,1-.24-.565,5.192,5.192,0,0,1-.271-1.1,9.114,9.114,0,0,1-.08-1.237c-.008-.082-.012-.171-.012-.27q0-.53.025-1.121a6.291,6.291,0,0,1,.24-1.7,5.961,5.961,0,0,1,.6-1.391,4.533,4.533,0,0,1,.873-1.065,4.911,4.911,0,0,1,1.071-.732,5.3,5.3,0,0,1,1.126-.375,5.722,5.722,0,0,1,1.213-.129,6.013,6.013,0,0,1,1.212.122A5.033,5.033,0,0,1-432.653,1198.057Zm-6.2-3.5a1.551,1.551,0,0,1,.129-.628,1.6,1.6,0,0,1,.351-.51,1.69,1.69,0,0,1,.5-.339,1.509,1.509,0,0,1,.6-.123,1.548,1.548,0,0,1,.609.123,1.609,1.609,0,0,1,.511.345,1.608,1.608,0,0,1,.345.511,1.575,1.575,0,0,1,.123.621,1.58,1.58,0,0,1-.123.622,1.474,1.474,0,0,1-.345.5,1.709,1.709,0,0,1-.511.332,1.533,1.533,0,0,1-.609.123,1.5,1.5,0,0,1-.6-.123,1.735,1.735,0,0,1-.5-.332,1.544,1.544,0,0,1-.351-.5A1.509,1.509,0,0,1-438.856,1194.562Zm5.858,8.417a5.255,5.255,0,0,0-.13-1.107,3.751,3.751,0,0,0-.307-.862,2.463,2.463,0,0,0-.437-.615,2.009,2.009,0,0,0-.516-.381.91.91,0,0,0-.271-.093,2.956,2.956,0,0,0-.32-.043h-.05a1.165,1.165,0,0,0-.283.037.883.883,0,0,0-.3.1,2.026,2.026,0,0,0-.517.381,2.46,2.46,0,0,0-.436.615,3.751,3.751,0,0,0-.308.862,5.257,5.257,0,0,0-.129,1.107q-.012.443-.012.837c0,.132,0,.259.012.382a7.574,7.574,0,0,0,.062,1.015,3.982,3.982,0,0,0,.178.781,1.578,1.578,0,0,0,.338.566q.124.136.24.252a1.205,1.205,0,0,0,.271.2,1.477,1.477,0,0,0,.363.142,2.158,2.158,0,0,0,.542.056,2.22,2.22,0,0,0,.554-.056,1.478,1.478,0,0,0,.363-.142,1.224,1.224,0,0,0,.271-.2c.078-.078.158-.166.24-.264a1.46,1.46,0,0,0,.338-.554,4.035,4.035,0,0,0,.179-.787,9.028,9.028,0,0,0,.073-1v-.393Q-432.986,1203.423-433,1202.979Zm-1.908-8.417a1.552,1.552,0,0,1,.129-.628,1.607,1.607,0,0,1,.351-.51,1.664,1.664,0,0,1,.511-.339,1.581,1.581,0,0,1,.622-.123,1.551,1.551,0,0,1,.609.123,1.478,1.478,0,0,1,.5.345,1.719,1.719,0,0,1,.332.511,1.575,1.575,0,0,1,.123.621,1.531,1.531,0,0,1-.123.615,1.6,1.6,0,0,1-.338.5,1.6,1.6,0,0,1-.5.338,1.488,1.488,0,0,1-.6.123,1.566,1.566,0,0,1-.622-.123,1.708,1.708,0,0,1-.511-.332,1.555,1.555,0,0,1-.351-.5A1.509,1.509,0,0,1-434.906,1194.562Z" transform="translate(531.006 -1192.802)" fill="#fff"/>
      <path id="Path_10" data-name="Path 10" d="M-415.622,1198a4.923,4.923,0,0,1,1.071.732,4.712,4.712,0,0,1,.88,1.065,5.489,5.489,0,0,1,.591,1.391,7.1,7.1,0,0,1,.24,1.711q.012.726.013,1.378a9.244,9.244,0,0,1-.08,1.237,5.242,5.242,0,0,1-.271,1.1,3.073,3.073,0,0,1-.24.565h2.363v2.35h-13.87v-2.35h2.413a2.991,2.991,0,0,1-.24-.565,5.242,5.242,0,0,1-.271-1.1,9.239,9.239,0,0,1-.08-1.237c-.007-.082-.012-.171-.012-.27q0-.53.025-1.121a6.29,6.29,0,0,1,.24-1.7,5.928,5.928,0,0,1,.6-1.391,4.551,4.551,0,0,1,.873-1.065,4.923,4.923,0,0,1,1.071-.732,5.31,5.31,0,0,1,1.126-.375,5.728,5.728,0,0,1,1.213-.129,6,6,0,0,1,1.212.123A5.021,5.021,0,0,1-415.622,1198Zm-.344,4.922a5.256,5.256,0,0,0-.129-1.107,3.754,3.754,0,0,0-.308-.862,2.442,2.442,0,0,0-.437-.615,2.013,2.013,0,0,0-.516-.381.9.9,0,0,0-.271-.093,2.929,2.929,0,0,0-.32-.043H-418a1.169,1.169,0,0,0-.284.037.879.879,0,0,0-.3.1,2.013,2.013,0,0,0-.517.381,2.442,2.442,0,0,0-.437.615,3.756,3.756,0,0,0-.308.862,5.26,5.26,0,0,0-.129,1.107q-.012.443-.012.837c0,.131,0,.259.012.382a7.572,7.572,0,0,0,.062,1.015,4.034,4.034,0,0,0,.179.781,1.569,1.569,0,0,0,.338.566q.122.136.24.252a1.218,1.218,0,0,0,.271.2,1.482,1.482,0,0,0,.363.142,2.164,2.164,0,0,0,.542.056,2.227,2.227,0,0,0,.554-.056,1.482,1.482,0,0,0,.363-.142,1.217,1.217,0,0,0,.271-.2c.078-.078.158-.166.24-.264a1.461,1.461,0,0,0,.338-.554,4.037,4.037,0,0,0,.179-.787,9.226,9.226,0,0,0,.074-1v-.393Q-415.954,1203.367-415.967,1202.924Zm-3.754-8.578a1.548,1.548,0,0,1,.129-.627,1.6,1.6,0,0,1,.351-.51,1.674,1.674,0,0,1,.5-.339,1.5,1.5,0,0,1,.6-.123,1.548,1.548,0,0,1,.609.123,1.6,1.6,0,0,1,.511.344,1.618,1.618,0,0,1,.345.51,1.578,1.578,0,0,1,.122.621,1.579,1.579,0,0,1-.122.622,1.474,1.474,0,0,1-.345.5,1.7,1.7,0,0,1-.511.332,1.536,1.536,0,0,1-.609.123,1.49,1.49,0,0,1-.6-.123,1.717,1.717,0,0,1-.5-.332,1.544,1.544,0,0,1-.351-.5A1.509,1.509,0,0,1-419.72,1194.346Z" transform="translate(526.613 -1192.747)" fill="#fff"/>
      <path id="Path_11" data-name="Path 11" d="M-401.605,1211.243v.013q-.6.025-.96.024c-.131,0-.258,0-.381-.012-.369,0-.755-.007-1.157-.025h-3.79v-2.35h1.464a.612.612,0,0,0,.406-.222,1.3,1.3,0,0,0,.277-.418,1.4,1.4,0,0,0,.1-.554v-7.827h3.138v2.3a5.755,5.755,0,0,1,4.64-2.782c.156-.007.315-.012.48-.012a9.983,9.983,0,0,1,1.1.062,6.458,6.458,0,0,1,1.5.345,6.321,6.321,0,0,1,1.434.683,4.865,4.865,0,0,1,1.144,1.022,4.822,4.822,0,0,1,.775,1.371,5.405,5.405,0,0,1,.314,1.748v.222a1.507,1.507,0,0,0,.012.185v2.683a3.2,3.2,0,0,1-.271,1.3,3.379,3.379,0,0,1-.738,1.07,3.8,3.8,0,0,1-1.286.862,4.222,4.222,0,0,1-1.63.307Zm-.911-3.249a2.4,2.4,0,0,1-.1.529l-.1.369h7.692a.613.613,0,0,0,.406-.222,1.308,1.308,0,0,0,.277-.418,1.4,1.4,0,0,0,.1-.554v-2.487c0-.09,0-.182-.006-.277s-.006-.191-.006-.289a4.026,4.026,0,0,0-.166-1.028,2.643,2.643,0,0,0-.388-.781,2.462,2.462,0,0,0-.572-.56,2.974,2.974,0,0,0-.708-.363,4.042,4.042,0,0,0-.738-.16,4.029,4.029,0,0,0-.541-.037q-.136,0-.283.013a5.826,5.826,0,0,0-.9.123,5.435,5.435,0,0,0-.917.283,5.9,5.9,0,0,0-1.187.6,4.4,4.4,0,0,0-.966.856,3.883,3.883,0,0,0-.64,1.083,3.476,3.476,0,0,0-.234,1.285v2.03Z" transform="translate(522.221 -1194.458)" fill="#fff"/>
    </g>
    <g id="Group_10" data-name="Group 10" transform="translate(-550.296 1046.35)">
      <g id="Group_3" data-name="Group 3">
        <g id="Group_2" data-name="Group 2">
          <path id="Path_12" data-name="Path 12" d="M-496.947,1144.944l-49.3-49.3,49.3-49.3,49.3,49.3Zm-45.247-49.3,45.247,45.247,45.247-45.247-45.247-45.245Z" transform="translate(546.244 -1046.35)" fill="#fff"/>
        </g>
        <path id="Path_13" data-name="Path 13" d="M-494.379,1140.122l-41.908-41.908,41.908-41.908,41.909,41.908Zm-38.975-41.908,38.975,38.975,38.975-38.975-38.975-38.975Z" transform="translate(543.676 -1048.918)" fill="#fff"/>
      </g>
      <g id="Group_9" data-name="Group 9" transform="translate(13.996 20.664)">
        <g id="Group_7" data-name="Group 7">
          <g id="Shape-2" data-name="Shape">
            <g id="Group_6" data-name="Group 6">
              <path id="SVGID-2" data-name="SVGID" d="M-512.452,1115.139a2.891,2.891,0,0,1-.014-4.083l4.709-4.744a2.886,2.886,0,0,1,4.061.008,2.887,2.887,0,0,1,.035,4.06l-4.71,4.745A2.888,2.888,0,0,1-512.452,1115.139Zm5.422,5.385a2.889,2.889,0,0,1-.014-4.082l4.71-4.745a2.885,2.885,0,0,1,4.081-.013,2.886,2.886,0,0,1,.013,4.081l-4.71,4.745a2.889,2.889,0,0,1-4.08.01Zm5.421,5.385a2.89,2.89,0,0,1-.013-4.082l4.71-4.745a2.886,2.886,0,0,1,4.005.057,2.886,2.886,0,0,1,.09,4l-4.709,4.744a2.887,2.887,0,0,1-4.082.016Zm9.5,5.371a2.886,2.886,0,0,1-2.785.756,2.885,2.885,0,0,1-2.047-2.033,2.885,2.885,0,0,1,.738-2.79l4.709-4.746a2.886,2.886,0,0,1,4.061.008,2.888,2.888,0,0,1,.035,4.061Zm22.98-23.063-.177-.22,10.754-10.846-1.168-1.2-10.9,10.932-14.256-14.159a2.8,2.8,0,0,0-1.986-.814,2.8,2.8,0,0,0-1.98.828l-6.761,6.809a3.832,3.832,0,0,1-2.714,1.132,3.831,3.831,0,0,1-2.717-1.124,1.92,1.92,0,0,1-.568-1.361,1.922,1.922,0,0,1,.563-1.363l9.419-9.491,11.788-11.884-1.363-1.255-11.75,11.821-.688.693-11.449-10.811-1.242,1.242,11.373,10.9-7.417,7.473a3.88,3.88,0,0,0-1.106,2.689c.031,3.84,5.816,6.071,9.2,2.657l6.76-6.807a.937.937,0,0,1,.66-.277.933.933,0,0,1,.662.271c1.9,1.883,13.8,13.707,15.618,15.511a2.887,2.887,0,0,1,.853,2.038,2.882,2.882,0,0,1-.839,2.043h0a2.879,2.879,0,0,1-2.037.856,2.883,2.883,0,0,1-2.043-.841l-12.877-12.789a.935.935,0,0,0-1.322,0,.935.935,0,0,0,0,1.323l12.88,12.788a2.886,2.886,0,0,1,.757,2.785,2.887,2.887,0,0,1-2.033,2.048,2.886,2.886,0,0,1-2.79-.737l-12.879-12.79a.935.935,0,0,0-.9-.239.934.934,0,0,0-.659.663.936.936,0,0,0,.245.9l12.875,12.786a2.882,2.882,0,0,1,.286,3.762,2.883,2.883,0,0,1-3.682.823,4.719,4.719,0,0,0-1.183-3.685,4.721,4.721,0,0,0-3.541-1.561c-1.029.006-.642.383-.649-.646a4.754,4.754,0,0,0-1.4-3.359,4.752,4.752,0,0,0-3.368-1.381c-1.029,0-.646.395-.649-.646a4.755,4.755,0,0,0-1.4-3.359,4.755,4.755,0,0,0-3.368-1.381c-1.034,0-.646.4-.649-.646a4.76,4.76,0,0,0-2.954-4.376,4.762,4.762,0,0,0-5.176,1.041c-6.475,6.521-4.241,4.274-4.724,4.76l-12.259-12.089-1.319,1.327,12.54,12.371a4.734,4.734,0,0,0,.718,4.7,4.732,4.732,0,0,0,4.442,1.7,4.71,4.71,0,0,0,1.333,4.081,4.707,4.707,0,0,0,4.089,1.3,4.712,4.712,0,0,0,1.333,4.08,4.707,4.707,0,0,0,4.089,1.3,4.749,4.749,0,0,0,2.56,4.95,4.75,4.75,0,0,0,5.5-.892c5.169-5.207,5.01-4.95,5.486-5.814a4.719,4.719,0,0,0,4.815-.553,4.718,4.718,0,0,0,1.79-4.5,4.727,4.727,0,0,0,4.075-1.343,4.725,4.725,0,0,0,1.308-4.085,4.749,4.749,0,0,0,4.962-2.592,4.749,4.749,0,0,0-.957-5.517" transform="translate(527.384 -1074.196)" fill="#fff"/>
              <g id="Group_5" data-name="Group 5" clip-path="url(#clip-path)">
                <path id="Path_14" data-name="Path 14" d="M-458.549,1080.354l-68.835,2.228V1074.2h68.835Z" transform="translate(527.384 -1074.196)" fill="#fff"/>
                <path id="Path_15" data-name="Path 15" d="M-458.549,1083.083l-68.835,2.229v-.59l68.835-2.228Z" transform="translate(527.384 -1076.336)" fill="#fff"/>
                <path id="Path_16" data-name="Path 16" d="M-458.549,1083.878l-68.835,2.228v-.59l68.835-2.228Z" transform="translate(527.384 -1076.541)" fill="#fff"/>
                <path id="Path_17" data-name="Path 17" d="M-458.549,1084.673l-68.835,2.228v-.59l68.835-2.228Z" transform="translate(527.384 -1076.746)" fill="#fff"/>
                <path id="Path_18" data-name="Path 18" d="M-458.549,1085.468l-68.835,2.228v-.59l68.835-2.229Z" transform="translate(527.384 -1076.951)" fill="#fff"/>
                <path id="Path_19" data-name="Path 19" d="M-458.549,1086.262l-68.835,2.229v-.59l68.835-2.228Z" transform="translate(527.384 -1077.156)" fill="#fff"/>
                <path id="Path_20" data-name="Path 20" d="M-458.549,1087.057l-68.835,2.228v-.59l68.835-2.228Z" transform="translate(527.384 -1077.361)" fill="#fff"/>
                <path id="Path_21" data-name="Path 21" d="M-458.549,1087.851l-68.835,2.228v-.59l68.835-2.228Z" transform="translate(527.384 -1077.566)" fill="#fff"/>
                <path id="Path_22" data-name="Path 22" d="M-458.549,1088.646l-68.835,2.228v-.59l68.835-2.228Z" transform="translate(527.384 -1077.771)" fill="#fff"/>
                <path id="Path_23" data-name="Path 23" d="M-458.549,1089.44l-68.835,2.228v-.59l68.835-2.228Z" transform="translate(527.384 -1077.976)" fill="#fff"/>
                <path id="Path_24" data-name="Path 24" d="M-458.549,1090.235l-68.835,2.228v-.59l68.835-2.228Z" transform="translate(527.384 -1078.18)" fill="#fff"/>
                <path id="Path_25" data-name="Path 25" d="M-458.549,1091.029l-68.835,2.228v-.59l68.835-2.228Z" transform="translate(527.384 -1078.385)" fill="#fff"/>
                <path id="Path_26" data-name="Path 26" d="M-458.549,1091.824l-68.835,2.228v-.59l68.835-2.228Z" transform="translate(527.384 -1078.59)" fill="#fff"/>
                <path id="Path_27" data-name="Path 27" d="M-458.549,1092.619l-68.835,2.229v-.59l68.835-2.228Z" transform="translate(527.384 -1078.795)" fill="#fff"/>
                <path id="Path_28" data-name="Path 28" d="M-458.549,1093.413l-68.835,2.228v-.59l68.835-2.228Z" transform="translate(527.384 -1079)" fill="#fff"/>
                <path id="Path_29" data-name="Path 29" d="M-458.549,1094.208l-68.835,2.228v-.59l68.835-2.228Z" transform="translate(527.384 -1079.205)" fill="#fff"/>
                <path id="Path_30" data-name="Path 30" d="M-458.549,1095l-68.835,2.228v-.59l68.835-2.228Z" transform="translate(527.384 -1079.41)" fill="#fff"/>
                <path id="Path_31" data-name="Path 31" d="M-458.549,1095.8l-68.835,2.228v-.59l68.835-2.228Z" transform="translate(527.384 -1079.615)" fill="#fff"/>
                <path id="Path_32" data-name="Path 32" d="M-458.549,1096.592l-68.835,2.228v-.59l68.835-2.228Z" transform="translate(527.384 -1079.82)" fill="#fff"/>
                <path id="Path_33" data-name="Path 33" d="M-458.549,1097.386l-68.835,2.228v-.59l68.835-2.228Z" transform="translate(527.384 -1080.025)" fill="#fff"/>
                <path id="Path_34" data-name="Path 34" d="M-458.549,1098.181l-68.835,2.228v-.59l68.835-2.228Z" transform="translate(527.384 -1080.23)" fill="#fff"/>
                <path id="Path_35" data-name="Path 35" d="M-458.549,1098.975l-68.835,2.228v-.59l68.835-2.228Z" transform="translate(527.384 -1080.435)" fill="#fff"/>
                <path id="Path_36" data-name="Path 36" d="M-458.549,1099.77-527.384,1102v-.59l68.835-2.228Z" transform="translate(527.384 -1080.64)" fill="#fff"/>
                <path id="Path_37" data-name="Path 37" d="M-458.549,1100.564l-68.835,2.228v-.59l68.835-2.228Z" transform="translate(527.384 -1080.845)" fill="#fff"/>
                <path id="Path_38" data-name="Path 38" d="M-458.549,1101.359l-68.835,2.228V1103l68.835-2.228Z" transform="translate(527.384 -1081.049)" fill="#fff"/>
                <path id="Path_39" data-name="Path 39" d="M-458.549,1102.154l-68.835,2.228v-.59l68.835-2.228Z" transform="translate(527.384 -1081.254)" fill="#fff"/>
                <path id="Path_40" data-name="Path 40" d="M-458.549,1102.948l-68.835,2.228v-.59l68.835-2.228Z" transform="translate(527.384 -1081.459)" fill="#fff"/>
                <path id="Path_41" data-name="Path 41" d="M-458.549,1103.743l-68.835,2.228v-.59l68.835-2.228Z" transform="translate(527.384 -1081.664)" fill="#fff"/>
                <path id="Path_42" data-name="Path 42" d="M-458.549,1104.537l-68.835,2.228v-.59l68.835-2.228Z" transform="translate(527.384 -1081.869)" fill="#fff"/>
                <path id="Path_43" data-name="Path 43" d="M-458.549,1105.332l-68.835,2.228v-.59l68.835-2.228Z" transform="translate(527.384 -1082.074)" fill="#fff"/>
                <path id="Path_44" data-name="Path 44" d="M-458.549,1106.126l-68.835,2.228v-.59l68.835-2.228Z" transform="translate(527.384 -1082.279)" fill="#fff"/>
                <path id="Path_45" data-name="Path 45" d="M-458.549,1106.921l-68.835,2.228v-.59l68.835-2.228Z" transform="translate(527.384 -1082.484)" fill="#fff"/>
                <path id="Path_46" data-name="Path 46" d="M-458.549,1107.715l-68.835,2.229v-.59l68.835-2.228Z" transform="translate(527.384 -1082.689)" fill="#fff"/>
                <path id="Path_47" data-name="Path 47" d="M-458.549,1108.51l-68.835,2.228v-.59l68.835-2.228Z" transform="translate(527.384 -1082.894)" fill="#fff"/>
                <path id="Path_48" data-name="Path 48" d="M-458.549,1109.3l-68.835,2.228v-.59l68.835-2.228Z" transform="translate(527.384 -1083.099)" fill="#fff"/>
                <path id="Path_49" data-name="Path 49" d="M-458.549,1110.1l-68.835,2.228v-.59l68.835-2.228Z" transform="translate(527.384 -1083.304)" fill="#fff"/>
                <path id="Path_50" data-name="Path 50" d="M-458.549,1110.894l-68.835,2.229v-.59l68.835-2.228Z" transform="translate(527.384 -1083.509)" fill="#fff"/>
                <path id="Path_51" data-name="Path 51" d="M-458.549,1111.688l-68.835,2.229v-.59l68.835-2.228Z" transform="translate(527.384 -1083.714)" fill="#fff"/>
                <path id="Path_52" data-name="Path 52" d="M-458.549,1112.483l-68.835,2.228v-.59l68.835-2.228Z" transform="translate(527.384 -1083.918)" fill="#fff"/>
                <path id="Path_53" data-name="Path 53" d="M-458.549,1113.278l-68.835,2.228v-.59l68.835-2.228Z" transform="translate(527.384 -1084.123)" fill="#fff"/>
                <path id="Path_54" data-name="Path 54" d="M-458.549,1114.072l-68.835,2.228v-.59l68.835-2.228Z" transform="translate(527.384 -1084.328)" fill="#fff"/>
                <path id="Path_55" data-name="Path 55" d="M-458.549,1114.867l-68.835,2.228v-.59l68.835-2.228Z" transform="translate(527.384 -1084.533)" fill="#fff"/>
                <path id="Path_56" data-name="Path 56" d="M-458.549,1115.661l-68.835,2.228v-.59l68.835-2.228Z" transform="translate(527.384 -1084.738)" fill="#fff"/>
                <path id="Path_57" data-name="Path 57" d="M-458.549,1116.534l-68.835,2.228v-.667l68.835-2.228Z" transform="translate(527.384 -1084.943)" fill="#fff"/>
                <path id="Path_58" data-name="Path 58" d="M-458.549,1117.433l-68.835,2.228v-.667l68.835-2.228Z" transform="translate(527.384 -1085.175)" fill="#fff"/>
                <path id="Path_59" data-name="Path 59" d="M-458.549,1118.332l-68.835,2.228v-.667l68.835-2.228Z" transform="translate(527.384 -1085.407)" fill="#fff"/>
                <path id="Path_60" data-name="Path 60" d="M-458.549,1119.231l-68.835,2.228v-.667l68.835-2.228Z" transform="translate(527.384 -1085.639)" fill="#fff"/>
                <path id="Path_61" data-name="Path 61" d="M-458.549,1120.131l-68.835,2.229v-.667l68.835-2.228Z" transform="translate(527.384 -1085.871)" fill="#fff"/>
                <path id="Path_62" data-name="Path 62" d="M-458.549,1121.03l-68.835,2.228v-.667l68.835-2.228Z" transform="translate(527.384 -1086.103)" fill="#fff"/>
                <path id="Path_63" data-name="Path 63" d="M-458.549,1121.929l-68.835,2.228v-.667l68.835-2.228Z" transform="translate(527.384 -1086.335)" fill="#fff"/>
                <path id="Path_64" data-name="Path 64" d="M-458.549,1122.828l-68.835,2.229v-.667l68.835-2.228Z" transform="translate(527.384 -1086.567)" fill="#fff"/>
                <path id="Path_65" data-name="Path 65" d="M-458.549,1123.728l-68.835,2.228v-.667l68.835-2.228Z" transform="translate(527.384 -1086.799)" fill="#fff"/>
                <path id="Path_66" data-name="Path 66" d="M-458.549,1124.627l-68.835,2.228v-.667l68.835-2.228Z" transform="translate(527.384 -1087.031)" fill="#fff"/>
                <path id="Path_67" data-name="Path 67" d="M-458.549,1125.526l-68.835,2.228v-.667l68.835-2.228Z" transform="translate(527.384 -1087.262)" fill="#fff"/>
                <path id="Path_68" data-name="Path 68" d="M-458.549,1126.425l-68.835,2.228v-.667l68.835-2.228Z" transform="translate(527.384 -1087.494)" fill="#fff"/>
                <path id="Path_69" data-name="Path 69" d="M-458.549,1127.325l-68.835,2.228v-.667l68.835-2.228Z" transform="translate(527.384 -1087.726)" fill="#fff"/>
                <path id="Path_70" data-name="Path 70" d="M-458.549,1128.224l-68.835,2.228v-.667l68.835-2.228Z" transform="translate(527.384 -1087.958)" fill="#fff"/>
                <path id="Path_71" data-name="Path 71" d="M-458.549,1129.123l-68.835,2.228v-.667l68.835-2.229Z" transform="translate(527.384 -1088.19)" fill="#fff"/>
                <path id="Path_72" data-name="Path 72" d="M-458.549,1130.022l-68.835,2.228v-.667l68.835-2.228Z" transform="translate(527.384 -1088.422)" fill="#fff"/>
                <path id="Path_73" data-name="Path 73" d="M-458.549,1130.922l-68.835,2.229v-.667l68.835-2.228Z" transform="translate(527.384 -1088.654)" fill="#fff"/>
                <path id="Path_74" data-name="Path 74" d="M-458.549,1131.821l-68.835,2.228v-.667l68.835-2.228Z" transform="translate(527.384 -1088.886)" fill="#fff"/>
                <path id="Path_75" data-name="Path 75" d="M-458.549,1132.72l-68.835,2.228v-.667l68.835-2.228Z" transform="translate(527.384 -1089.118)" fill="#fff"/>
                <path id="Path_76" data-name="Path 76" d="M-458.549,1133.619l-68.835,2.229v-.667l68.835-2.228Z" transform="translate(527.384 -1089.35)" fill="#fff"/>
                <path id="Path_77" data-name="Path 77" d="M-458.549,1134.519l-68.835,2.228v-.667l68.835-2.228Z" transform="translate(527.384 -1089.582)" fill="#fff"/>
                <path id="Path_78" data-name="Path 78" d="M-458.549,1135.418l-68.835,2.228v-.667l68.835-2.228Z" transform="translate(527.384 -1089.814)" fill="#fff"/>
                <path id="Path_79" data-name="Path 79" d="M-458.549,1136.317l-68.835,2.229v-.667l68.835-2.228Z" transform="translate(527.384 -1090.046)" fill="#fff"/>
                <path id="Path_80" data-name="Path 80" d="M-458.549,1137.216l-68.835,2.228v-.667l68.835-2.228Z" transform="translate(527.384 -1090.277)" fill="#fff"/>
                <path id="Path_81" data-name="Path 81" d="M-458.549,1138.116l-68.835,2.228v-.667l68.835-2.228Z" transform="translate(527.384 -1090.51)" fill="#fff"/>
                <path id="Path_82" data-name="Path 82" d="M-458.549,1139.015l-68.835,2.228v-.667l68.835-2.228Z" transform="translate(527.384 -1090.741)" fill="#fff"/>
                <path id="Path_83" data-name="Path 83" d="M-458.549,1139.914l-68.835,2.228v-.667l68.835-2.228Z" transform="translate(527.384 -1090.973)" fill="#fff"/>
                <path id="Path_84" data-name="Path 84" d="M-458.549,1140.813l-68.835,2.228v-.667l68.835-2.228Z" transform="translate(527.384 -1091.205)" fill="#fff"/>
                <path id="Path_85" data-name="Path 85" d="M-458.549,1141.713l-68.835,2.228v-.667l68.835-2.228Z" transform="translate(527.384 -1091.437)" fill="#fff"/>
                <path id="Path_86" data-name="Path 86" d="M-458.549,1142.612l-68.835,2.228v-.667l68.835-2.228Z" transform="translate(527.384 -1091.669)" fill="#fff"/>
                <path id="Path_87" data-name="Path 87" d="M-458.549,1143.511l-68.835,2.228v-.667l68.835-2.228Z" transform="translate(527.384 -1091.901)" fill="#fff"/>
                <path id="Path_88" data-name="Path 88" d="M-458.549,1144.41l-68.835,2.229v-.667l68.835-2.228Z" transform="translate(527.384 -1092.133)" fill="#fff"/>
                <path id="Path_89" data-name="Path 89" d="M-458.549,1145.31l-68.835,2.228v-.667l68.835-2.228Z" transform="translate(527.384 -1092.365)" fill="#fff"/>
                <path id="Path_90" data-name="Path 90" d="M-458.549,1146.209l-68.835,2.228v-.667l68.835-2.228Z" transform="translate(527.384 -1092.597)" fill="#fff"/>
                <path id="Path_91" data-name="Path 91" d="M-458.549,1147.108l-68.835,2.228v-.667l68.835-2.228Z" transform="translate(527.384 -1092.828)" fill="#fff"/>
                <path id="Path_92" data-name="Path 92" d="M-458.549,1148.007l-68.835,2.229v-.667l68.835-2.228Z" transform="translate(527.384 -1093.06)" fill="#fff"/>
                <path id="Path_93" data-name="Path 93" d="M-458.549,1148.907l-68.835,2.228v-.667l68.835-2.228Z" transform="translate(527.384 -1093.292)" fill="#fff"/>
                <path id="Path_94" data-name="Path 94" d="M-458.549,1149.806l-68.835,2.229v-.667l68.835-2.228Z" transform="translate(527.384 -1093.524)" fill="#fff"/>
                <path id="Path_95" data-name="Path 95" d="M-458.549,1150.705l-68.835,2.228v-.667l68.835-2.228Z" transform="translate(527.384 -1093.756)" fill="#fff"/>
                <path id="Path_96" data-name="Path 96" d="M-458.549,1151.6l-68.835,2.228v-.667l68.835-2.228Z" transform="translate(527.384 -1093.988)" fill="#fff"/>
                <path id="Path_97" data-name="Path 97" d="M-458.549,1152.5l-59.46,1.925h-9.375v-.364l68.835-2.228Z" transform="translate(527.384 -1094.22)" fill="#fff"/>
                <path id="Path_98" data-name="Path 98" d="M-455.29,1153.4l-38.846,1.257h-20.614l59.46-1.925Z" transform="translate(524.126 -1094.452)" fill="#fff"/>
                <path id="Path_99" data-name="Path 99" d="M-486.973,1154.892l38.846-1.258v1.258Z" transform="translate(516.962 -1094.684)" fill="#fff"/>
                <path id="Path_100" data-name="Path 100" d="M-475.806,1137.756l-10.916.353v-.363h10.916Z" transform="translate(516.897 -1090.586)" fill="#fff"/>
                <path id="Path_101" data-name="Path 101" d="M-475.806,1138.427l-10.916.353v-.667l10.916-.353Z" transform="translate(516.897 -1090.589)" fill="#fff"/>
                <path id="Path_102" data-name="Path 102" d="M-475.806,1139.326l-10.916.353v-.667l10.916-.353Z" transform="translate(516.897 -1090.821)" fill="#fff"/>
                <path id="Path_103" data-name="Path 103" d="M-475.806,1140.225l-10.916.353v-.667l10.916-.353Z" transform="translate(516.897 -1091.053)" fill="#fff"/>
                <path id="Path_104" data-name="Path 104" d="M-475.806,1141.124l-10.916.353v-.667l10.916-.353Z" transform="translate(516.897 -1091.285)" fill="#fff"/>
                <path id="Path_105" data-name="Path 105" d="M-475.806,1142.024l-10.916.353v-.667l10.916-.353Z" transform="translate(516.897 -1091.517)" fill="#fff"/>
                <path id="Path_106" data-name="Path 106" d="M-475.806,1142.923l-10.916.353v-.667l10.916-.353Z" transform="translate(516.897 -1091.749)" fill="#fff"/>
                <path id="Path_107" data-name="Path 107" d="M-475.806,1143.822l-10.916.353v-.667l10.916-.353Z" transform="translate(516.897 -1091.981)" fill="#fff"/>
                <path id="Path_108" data-name="Path 108" d="M-475.806,1144.721l-10.916.353v-.667l10.916-.353Z" transform="translate(516.897 -1092.213)" fill="#fff"/>
                <path id="Path_109" data-name="Path 109" d="M-475.806,1145.621l-10.916.353v-.667l10.916-.353Z" transform="translate(516.897 -1092.445)" fill="#fff"/>
                <path id="Path_110" data-name="Path 110" d="M-475.806,1146.52l-10.916.353v-.667l10.916-.353Z" transform="translate(516.897 -1092.677)" fill="#fff"/>
                <path id="Path_111" data-name="Path 111" d="M-475.806,1147.419l-10.916.353v-.667l10.916-.353Z" transform="translate(516.897 -1092.909)" fill="#fff"/>
                <path id="Path_112" data-name="Path 112" d="M-475.806,1148.318l-10.916.353V1148l10.916-.353Z" transform="translate(516.897 -1093.141)" fill="#fff"/>
                <path id="Path_113" data-name="Path 113" d="M-475.806,1149.218l-10.916.353v-.667l10.916-.353Z" transform="translate(516.897 -1093.373)" fill="#fff"/>
                <path id="Path_114" data-name="Path 114" d="M-475.806,1150.117l-10.916.353v-.667l10.916-.353Z" transform="translate(516.897 -1093.604)" fill="#fff"/>
                <path id="Path_115" data-name="Path 115" d="M-475.806,1151.016l-10.916.353v-.667l10.916-.353Z" transform="translate(516.897 -1093.836)" fill="#fff"/>
                <path id="Path_116" data-name="Path 116" d="M-475.806,1151.915l-7.934.257h-2.982v-.571l10.916-.353Z" transform="translate(516.897 -1094.068)" fill="#fff"/>
                <path id="Path_117" data-name="Path 117" d="M-482.7,1152.4l7.934-.257v.257Z" transform="translate(515.861 -1094.3)" fill="#fff"/>
                <path id="Path_118" data-name="Path 118" d="M-483.2,1130.74l-10.978.355v-.539H-483.2Z" transform="translate(518.821 -1088.732)" fill="#fff"/>
                <path id="Path_119" data-name="Path 119" d="M-483.2,1131.471l-10.978.355v-.667l10.978-.355Z" transform="translate(518.821 -1088.796)" fill="#fff"/>
                <path id="Path_120" data-name="Path 120" d="M-483.2,1132.371l-10.978.355v-.667l10.978-.355Z" transform="translate(518.821 -1089.028)" fill="#fff"/>
                <path id="Path_121" data-name="Path 121" d="M-483.2,1133.27l-10.978.355v-.667l10.978-.355Z" transform="translate(518.821 -1089.26)" fill="#fff"/>
                <path id="Path_122" data-name="Path 122" d="M-483.2,1134.169l-10.978.355v-.667l10.978-.355Z" transform="translate(518.821 -1089.492)" fill="#fff"/>
                <path id="Path_123" data-name="Path 123" d="M-483.2,1135.068l-10.978.355v-.667l10.978-.355Z" transform="translate(518.821 -1089.724)" fill="#fff"/>
                <path id="Path_124" data-name="Path 124" d="M-483.2,1135.968l-10.978.355v-.667l10.978-.355Z" transform="translate(518.821 -1089.955)" fill="#fff"/>
                <path id="Path_125" data-name="Path 125" d="M-483.2,1136.867l-10.978.355v-.667l10.978-.355Z" transform="translate(518.821 -1090.187)" fill="#fff"/>
                <path id="Path_126" data-name="Path 126" d="M-483.2,1137.766l-10.978.355v-.667l10.978-.355Z" transform="translate(518.821 -1090.419)" fill="#fff"/>
                <path id="Path_127" data-name="Path 127" d="M-483.2,1138.665l-10.978.355v-.667L-483.2,1138Z" transform="translate(518.821 -1090.651)" fill="#fff"/>
                <path id="Path_128" data-name="Path 128" d="M-483.2,1139.565l-10.978.355v-.667l10.978-.355Z" transform="translate(518.821 -1090.883)" fill="#fff"/>
                <path id="Path_129" data-name="Path 129" d="M-483.2,1140.464l-10.978.355v-.667l10.978-.355Z" transform="translate(518.821 -1091.115)" fill="#fff"/>
                <path id="Path_130" data-name="Path 130" d="M-483.2,1141.363l-10.978.355v-.667l10.978-.355Z" transform="translate(518.821 -1091.347)" fill="#fff"/>
                <path id="Path_131" data-name="Path 131" d="M-483.2,1142.262l-10.978.355v-.667l10.978-.355Z" transform="translate(518.821 -1091.579)" fill="#fff"/>
                <path id="Path_132" data-name="Path 132" d="M-483.2,1143.162l-10.978.355v-.667l10.978-.355Z" transform="translate(518.821 -1091.811)" fill="#fff"/>
                <path id="Path_133" data-name="Path 133" d="M-483.2,1144.061l-10.978.355v-.667l10.978-.355Z" transform="translate(518.821 -1092.043)" fill="#fff"/>
                <path id="Path_134" data-name="Path 134" d="M-483.2,1144.96l-4.483.145h-6.495v-.457l10.978-.355Z" transform="translate(518.821 -1092.275)" fill="#fff"/>
                <path id="Path_135" data-name="Path 135" d="M-485.429,1145.337l4.483-.145v.145Z" transform="translate(516.563 -1092.506)" fill="#fff"/>
                <path id="Path_136" data-name="Path 136" d="M-496.266,1123.2l-5.222.169v-.169Z" transform="translate(520.705 -1086.834)" fill="#fff"/>
                <path id="Path_137" data-name="Path 137" d="M-490.439,1123.677l-11.049.358v-.667l5.222-.169h5.827Z" transform="translate(520.705 -1086.834)" fill="#fff"/>
                <path id="Path_138" data-name="Path 138" d="M-490.439,1124.511l-11.049.358v-.667l11.049-.358Z" transform="translate(520.705 -1087.001)" fill="#fff"/>
                <path id="Path_139" data-name="Path 139" d="M-490.439,1125.41l-11.049.358v-.667l11.049-.358Z" transform="translate(520.705 -1087.232)" fill="#fff"/>
                <path id="Path_140" data-name="Path 140" d="M-490.439,1126.309l-11.049.358V1126l11.049-.358Z" transform="translate(520.705 -1087.464)" fill="#fff"/>
                <path id="Path_141" data-name="Path 141" d="M-490.439,1127.208l-11.049.358v-.667l11.049-.358Z" transform="translate(520.705 -1087.696)" fill="#fff"/>
                <path id="Path_142" data-name="Path 142" d="M-490.439,1128.108l-11.049.358v-.667l11.049-.358Z" transform="translate(520.705 -1087.928)" fill="#fff"/>
                <path id="Path_143" data-name="Path 143" d="M-490.439,1129.007l-11.049.358v-.667l11.049-.358Z" transform="translate(520.705 -1088.16)" fill="#fff"/>
                <path id="Path_144" data-name="Path 144" d="M-490.439,1129.906l-11.049.358v-.667l11.049-.358Z" transform="translate(520.705 -1088.392)" fill="#fff"/>
                <path id="Path_145" data-name="Path 145" d="M-490.439,1130.806l-11.049.358v-.667l11.049-.358Z" transform="translate(520.705 -1088.624)" fill="#fff"/>
                <path id="Path_146" data-name="Path 146" d="M-490.439,1131.7l-11.049.358v-.667l11.049-.358Z" transform="translate(520.705 -1088.856)" fill="#fff"/>
                <path id="Path_147" data-name="Path 147" d="M-490.439,1132.6l-11.049.358v-.667l11.049-.358Z" transform="translate(520.705 -1089.088)" fill="#fff"/>
                <path id="Path_148" data-name="Path 148" d="M-490.439,1133.5l-11.049.358v-.667l11.049-.358Z" transform="translate(520.705 -1089.32)" fill="#fff"/>
                <path id="Path_149" data-name="Path 149" d="M-490.439,1134.4l-11.049.358v-.667l11.049-.358Z" transform="translate(520.705 -1089.552)" fill="#fff"/>
                <path id="Path_150" data-name="Path 150" d="M-490.439,1135.3l-11.049.358v-.667l11.049-.358Z" transform="translate(520.705 -1089.784)" fill="#fff"/>
                <path id="Path_151" data-name="Path 151" d="M-490.439,1136.2l-11.049.358v-.667l11.049-.358Z" transform="translate(520.705 -1090.016)" fill="#fff"/>
                <path id="Path_152" data-name="Path 152" d="M-490.439,1137.1l-11.049.358v-.667l11.049-.358Z" transform="translate(520.705 -1090.247)" fill="#fff"/>
                <path id="Path_153" data-name="Path 153" d="M-501.488,1137.69l11.049-.358v.593h-11.049Z" transform="translate(520.705 -1090.479)" fill="#fff"/>
                <path id="Path_154" data-name="Path 154" d="M-497.764,1116.14l-11.029.357v-.521h11.029Z" transform="translate(522.589 -1084.972)" fill="#fff"/>
                <path id="Path_155" data-name="Path 155" d="M-497.764,1116.787l-11.029.357v-.59l11.029-.357Z" transform="translate(522.589 -1085.028)" fill="#fff"/>
                <path id="Path_156" data-name="Path 156" d="M-497.764,1117.581l-11.029.357v-.59l11.029-.357Z" transform="translate(522.589 -1085.233)" fill="#fff"/>
                <path id="Path_157" data-name="Path 157" d="M-497.764,1118.453l-11.029.357v-.667l11.029-.357Z" transform="translate(522.589 -1085.438)" fill="#fff"/>
                <path id="Path_158" data-name="Path 158" d="M-497.764,1119.353l-11.029.357v-.667l11.029-.357Z" transform="translate(522.589 -1085.67)" fill="#fff"/>
                <path id="Path_159" data-name="Path 159" d="M-497.764,1120.252l-11.029.357v-.667l11.029-.357Z" transform="translate(522.589 -1085.902)" fill="#fff"/>
                <path id="Path_160" data-name="Path 160" d="M-497.764,1121.151l-11.029.357v-.667l11.029-.357Z" transform="translate(522.589 -1086.134)" fill="#fff"/>
                <path id="Path_161" data-name="Path 161" d="M-497.764,1122.05l-11.029.357v-.667l11.029-.357Z" transform="translate(522.589 -1086.366)" fill="#fff"/>
                <path id="Path_162" data-name="Path 162" d="M-497.764,1122.95l-11.029.357v-.667l11.029-.357Z" transform="translate(522.589 -1086.598)" fill="#fff"/>
                <path id="Path_163" data-name="Path 163" d="M-497.764,1123.849l-11.029.357v-.667l11.029-.357Z" transform="translate(522.589 -1086.83)" fill="#fff"/>
                <path id="Path_164" data-name="Path 164" d="M-497.764,1124.748l-11.029.357v-.667l11.029-.357Z" transform="translate(522.589 -1087.062)" fill="#fff"/>
                <path id="Path_165" data-name="Path 165" d="M-497.764,1125.647l-11.029.357v-.667l11.029-.357Z" transform="translate(522.589 -1087.294)" fill="#fff"/>
                <path id="Path_166" data-name="Path 166" d="M-497.764,1126.547l-11.029.357v-.667l11.029-.357Z" transform="translate(522.589 -1087.526)" fill="#fff"/>
                <path id="Path_167" data-name="Path 167" d="M-497.764,1127.446l-11.029.357v-.667l11.029-.357Z" transform="translate(522.589 -1087.757)" fill="#fff"/>
                <path id="Path_168" data-name="Path 168" d="M-497.764,1128.345l-11.029.357v-.667l11.029-.357Z" transform="translate(522.589 -1087.989)" fill="#fff"/>
                <path id="Path_169" data-name="Path 169" d="M-497.764,1129.244l-11.029.357v-.667l11.029-.357Z" transform="translate(522.589 -1088.221)" fill="#fff"/>
                <path id="Path_170" data-name="Path 170" d="M-497.764,1130.144l-11.029.357v-.667l11.029-.357Z" transform="translate(522.589 -1088.453)" fill="#fff"/>
                <path id="Path_171" data-name="Path 171" d="M-508.793,1130.733l11.029-.357v.374h-11.029Z" transform="translate(522.589 -1088.685)" fill="#fff"/>
              </g>
            </g>
          </g>
        </g>
      </g>
    </g>
  </g>
</svg>
