<svg xmlns="http://www.w3.org/2000/svg" width="69.513" height="69.513" viewBox="0 0 69.513 69.513">
  <g id="Group_61" data-name="Group 61" transform="translate(-0.002)">
    <g id="Group_61-2" data-name="Group 61" transform="translate(0.002)">
      <path id="Path_228" data-name="Path 228" d="M69.489,30.9a4.289,4.289,0,0,0-4.321-4.277h-.04a.407.407,0,0,1-.377-.3,30.975,30.975,0,0,0-2.9-6.948.472.472,0,0,1,.069-.568l0,0a4.167,4.167,0,0,0,1.236-2.985,4.36,4.36,0,0,0-1.274-3.083L56.594,7.476h0a4.278,4.278,0,0,0-6.068.005c-.024.025-.049.049-.072.071a.387.387,0,0,1-.45.031,31.006,31.006,0,0,0-7.015-2.877.408.408,0,0,1-.306-.376V4.284A4.32,4.32,0,0,0,38.371,0h-.015L30.876.026a4.27,4.27,0,0,0-4.255,4.318v.043a.408.408,0,0,1-.3.378,31,31,0,0,0-6.995,2.926.386.386,0,0,1-.45-.028c-.025-.023-.05-.047-.073-.071a4.168,4.168,0,0,0-2.984-1.243h-.007a4.364,4.364,0,0,0-3.076,1.281L7.478,12.921a4.3,4.3,0,0,0,.005,6.068.431.431,0,0,1,.092.541,31,31,0,0,0-2.866,7,.424.424,0,0,1-.423.307A4.32,4.32,0,0,0,0,31.16l.026,7.447a4.3,4.3,0,0,0,4.306,4.287h.016a.406.406,0,0,1,.417.3,31.006,31.006,0,0,0,2.922,6.988.418.418,0,0,1-.1.53,4.3,4.3,0,0,0,.038,6.068l5.291,5.254a4.279,4.279,0,0,0,6.069-.006.392.392,0,0,1,.521-.1,30.993,30.993,0,0,0,7.016,2.877.408.408,0,0,1,.305.375,4.292,4.292,0,0,0,4.291,4.331h.015l7.436-.026a4.351,4.351,0,0,0,4.32-4.318v-.042a.41.41,0,0,1,.3-.38,31,31,0,0,0,6.992-2.925.388.388,0,0,1,.452.028,4.278,4.278,0,0,0,6.14.033l5.254-5.292a4.3,4.3,0,0,0,0-6.068l0,0a.461.461,0,0,1-.079-.557,30.984,30.984,0,0,0,2.856-6.978.408.408,0,0,1,.378-.3,4.283,4.283,0,0,0,3.128-1.321,4.4,4.4,0,0,0,1.2-3.075Zm-4.352,9.749a2.456,2.456,0,0,0-2.293,1.8,27.1,27.1,0,0,1-2.969,7.043c-.446.743-.158,1.556.739,2.491a2.288,2.288,0,0,1-.02,3.173l-5.254,5.291a2.281,2.281,0,0,1-1.634.679,2.247,2.247,0,0,1-1.678-.771,2.41,2.41,0,0,0-2.845-.3,28.969,28.969,0,0,1-6.532,2.732A2.458,2.458,0,0,0,40.86,65.1a2.307,2.307,0,0,1-2.291,2.355l-7.436.026a2.257,2.257,0,0,1-2.263-2.341,2.456,2.456,0,0,0-1.805-2.294,28.958,28.958,0,0,1-6.554-2.688,2.412,2.412,0,0,0-2.98.459,2.244,2.244,0,0,1-3.173-.02L9.066,55.338A2.258,2.258,0,0,1,9.092,52.1a2.463,2.463,0,0,0,.365-2.921,28.964,28.964,0,0,1-2.73-6.528,2.454,2.454,0,0,0-2.39-1.79A2.264,2.264,0,0,1,2.064,38.6l-.026-7.447a2.279,2.279,0,0,1,2.255-2.284h.018a2.466,2.466,0,0,0,2.362-1.807,28.965,28.965,0,0,1,2.678-6.536,2.475,2.475,0,0,0-.448-3,2.259,2.259,0,0,1,.02-3.173l5.255-5.292a2.313,2.313,0,0,1,1.631-.679h0a2.147,2.147,0,0,1,1.539.638c.046.047.093.092.14.136a2.408,2.408,0,0,0,2.842.3,28.969,28.969,0,0,1,6.535-2.734,2.457,2.457,0,0,0,1.789-2.31V4.327a2.219,2.219,0,0,1,.641-1.6,2.31,2.31,0,0,1,1.643-.668l7.421-.026H38.4A2.259,2.259,0,0,1,40.646,4.3c0,.025,0,.05,0,.075a2.457,2.457,0,0,0,1.806,2.295,28.96,28.96,0,0,1,6.554,2.688A2.414,2.414,0,0,0,51.986,8.9a2.243,2.243,0,0,1,3.173.021h0l5.291,5.255a2.31,2.31,0,0,1,.672,1.634,2.144,2.144,0,0,1-.63,1.539,4.272,4.272,0,0,0-.5.6,1.985,1.985,0,0,0-.068,2.15,27.02,27.02,0,0,1,2.868,6.773,2.455,2.455,0,0,0,2.3,1.788,2.259,2.259,0,0,1,2.36,2.248l.026,7.467a2.268,2.268,0,0,1-2.341,2.275Z" transform="translate(-0.002)" fill="#fff"/>
      <path id="Path_229" data-name="Path 229" d="M122.542,101.575a20.966,20.966,0,1,0,20.966,20.966,20.99,20.99,0,0,0-20.966-20.966Zm0,39.9a18.929,18.929,0,1,1,18.929-18.929,18.951,18.951,0,0,1-18.929,18.929Z" transform="translate(-87.785 -87.784)" fill="#fff"/>
      <path id="Path_230" data-name="Path 230" d="M176.9,173.013a3.644,3.644,0,0,0-5.134.461l-10.846,12.985-3.712-3.819a3.644,3.644,0,1,0-5.227,5.08l6.53,6.719a3.665,3.665,0,0,0,2.613,1.1l.137,0a3.65,3.65,0,0,0,2.66-1.306l13.438-16.088a3.649,3.649,0,0,0-.461-5.133Zm-1.1,3.828-13.439,16.088a1.608,1.608,0,0,1-2.387.09l-6.53-6.719a1.608,1.608,0,0,1,1.153-2.728h.023a1.6,1.6,0,0,1,1.13.487l4.5,4.63a1.033,1.033,0,0,0,.769.308,1.018,1.018,0,0,0,.743-.365l11.57-13.852a1.608,1.608,0,0,1,2.468,2.062Z" transform="translate(-130.459 -148.79)" fill="#fff"/>
      <path id="Path_231" data-name="Path 231" d="M109.21,169.119a23.353,23.353,0,0,1-32.868-32.867,1.018,1.018,0,1,0-1.573-1.293A25.389,25.389,0,0,0,110.5,170.692a1.018,1.018,0,1,0-1.293-1.573Z" transform="translate(-59.633 -116.314)" fill="#fff"/>
      <path id="Path_232" data-name="Path 232" d="M151.05,69a25.432,25.432,0,0,0-16.116,5.77,1.018,1.018,0,0,0,1.294,1.573,23.353,23.353,0,0,1,32.87,32.866,1.018,1.018,0,0,0,1.573,1.293A25.39,25.39,0,0,0,151.05,69Z" transform="translate(-116.294 -59.632)" fill="#fff"/>
    </g>
  </g>
</svg>
