<svg xmlns="http://www.w3.org/2000/svg" width="65.652" height="65.698" viewBox="0 0 65.652 65.698">
  <g id="Group_30" data-name="Group 30" transform="translate(-0.176 0)">
    <path id="Path_193" data-name="Path 193" d="M64.867,58.785H59.444v-26.7a3.7,3.7,0,0,0-3.7-3.7H49.313C60.192,8.492,34.4-10.2,18.883,6.4a.962.962,0,0,0,1.441,1.274A16.964,16.964,0,0,1,42.513,4.893c12.7,8.609,8.134,28.536-7.024,30.768a.962.962,0,0,0-.655.411L33,38.777l-1.731-2.672a.961.961,0,0,0-.671-.429,16.777,16.777,0,0,1-7.1-2.754,17.032,17.032,0,0,1-5.826-21.211.962.962,0,1,0-1.74-.819,18.927,18.927,0,0,0,.77,17.493H10.256a3.7,3.7,0,0,0-3.7,3.7v26.7H1.138a.962.962,0,0,0-.962.962V62a3.7,3.7,0,0,0,3.7,3.7H62.133a3.7,3.7,0,0,0,3.7-3.7V59.746a.962.962,0,0,0-.962-.962ZM48.036,30.3a.97.97,0,0,0,.118.007h7.594a1.774,1.774,0,0,1,1.772,1.772v26.7H54.9V33.9a.962.962,0,0,0-.962-.962H45.6a18.8,18.8,0,0,0,2.434-2.64ZM8.484,32.081a1.774,1.774,0,0,1,1.772-1.772h7.594a.963.963,0,0,0,.121-.008A18.857,18.857,0,0,0,20.4,32.941H12.07a.962.962,0,0,0-.962.962V58.785H8.484ZM63.905,62a1.774,1.774,0,0,1-1.772,1.772H3.872A1.774,1.774,0,0,1,2.1,62V60.708H45.276a.962.962,0,1,0,0-1.923H13.032V34.865h9.5a.961.961,0,0,0,.328-.057,18.649,18.649,0,0,0,7.03,2.705l2.285,3.527a.962.962,0,0,0,1.6.017L36.193,37.5a18.891,18.891,0,0,0,6.862-2.635c.087.009,9.829,0,9.918,0v23.92H50.4a.962.962,0,1,0,0,1.923H63.9V62Z" transform="translate(0 0)" fill="#fff"/>
    <path id="Path_194" data-name="Path 194" d="M230,137.6a3.336,3.336,0,0,0,6.671,0v-7.78a3.336,3.336,0,0,0-6.671,0Zm1.923-7.78a1.412,1.412,0,0,1,2.824,0v7.78a1.412,1.412,0,0,1-2.824,0Z" transform="translate(-200.337 -110.272)" fill="#fff"/>
    <path id="Path_195" data-name="Path 195" d="M233.34,69.018A3.336,3.336,0,1,0,230,65.682,3.34,3.34,0,0,0,233.34,69.018Zm0-4.748a1.412,1.412,0,1,1-1.412,1.412A1.414,1.414,0,0,1,233.34,64.27Z" transform="translate(-200.337 -54.362)" fill="#fff"/>
    <path id="Path_196" data-name="Path 196" d="M131.435,319.272h7.154a.962.962,0,0,0,0-1.923h-7.154a.962.962,0,0,0,0,1.923Z" transform="translate(-113.584 -276.628)" fill="#fff"/>
    <path id="Path_197" data-name="Path 197" d="M319,317.349h-7.154a.962.962,0,0,0,0,1.923H319A.962.962,0,0,0,319,317.349Z" transform="translate(-270.842 -276.628)" fill="#fff"/>
    <path id="Path_198" data-name="Path 198" d="M161.738,360.817h-30.3a.962.962,0,0,0,0,1.923h30.3A.962.962,0,0,0,161.738,360.817Z" transform="translate(-113.585 -314.519)" fill="#fff"/>
    <path id="Path_199" data-name="Path 199" d="M198.882,404.285H181.4a.962.962,0,0,0,0,1.923h17.48A.962.962,0,0,0,198.882,404.285Z" transform="translate(-157.139 -352.409)" fill="#fff"/>
  </g>
</svg>
